<?xml version="1.0" standalone="no"?>
<!DOCTYPE svg PUBLIC "-//W3C//DTD SVG 20010904//EN"
 "http://www.w3.org/TR/2001/REC-SVG-20010904/DTD/svg10.dtd">
<svg version="1.0" xmlns="http://www.w3.org/2000/svg"
 width="640.000000pt" height="640.000000pt" viewBox="0 0 640.000000 640.000000"
 preserveAspectRatio="xMidYMid meet">

<g transform="translate(0.000000,640.000000) scale(0.100000,-0.100000)"
fill="#000000" stroke="none">
<path d="M3922 5490 c-111 -16 -239 -105 -299 -207 -41 -70 -64 -166 -69 -288
l-4 -110 -35 -7 c-42 -9 -493 -182 -550 -210 -63 -33 -158 -134 -193 -209 -59
-123 -60 -166 -18 -484 20 -154 44 -304 52 -334 19 -66 87 -142 156 -174 45
-20 48 -24 43 -52 -3 -16 -10 -77 -15 -135 -8 -83 -30 -178 -107 -455 l-98
-350 -319 -17 -319 -17 -76 44 c-133 77 -191 89 -288 60 -88 -26 -128 -73
-263 -306 -139 -241 -155 -287 -126 -362 25 -65 49 -92 111 -123 51 -24 62
-26 158 -22 96 3 107 6 182 44 l80 40 350 -12 c521 -19 606 -18 695 7 131 36
249 114 330 216 19 25 80 135 135 244 l100 198 128 -110 c70 -60 127 -112 127
-115 0 -3 40 -185 90 -404 49 -219 103 -463 120 -542 17 -78 37 -164 46 -190
21 -64 92 -141 162 -175 l57 -28 260 0 260 0 47 28 c56 33 98 98 106 163 13
116 -101 280 -244 351 -50 24 -76 43 -79 57 -3 12 -41 228 -85 481 -44 253
-85 478 -91 500 -25 92 -72 176 -286 524 -125 201 -234 380 -244 396 -18 30
-18 31 28 185 25 85 46 156 47 157 1 1 26 -7 56 -17 67 -24 234 -27 301 -7 24
8 156 67 294 133 198 95 259 128 296 164 184 178 57 491 -201 493 -60 1 -81
-6 -283 -92 -184 -79 -221 -91 -231 -80 -16 17 -116 188 -116 198 0 4 19 14
42 22 91 30 202 136 242 233 22 53 46 194 46 271 0 86 -31 181 -83 252 -71 95
-162 152 -278 172 -72 12 -70 12 -147 1z m152 -212 c57 -17 121 -84 139 -145
19 -66 6 -210 -26 -273 -46 -89 -151 -140 -249 -119 -61 13 -105 43 -143 98
-29 42 -30 46 -29 154 0 92 4 120 21 159 51 112 165 162 287 126z m-434 -615
c72 -42 71 -155 -2 -194 -12 -6 -119 -34 -237 -61 -118 -26 -224 -54 -236 -62
-48 -32 -49 -46 -26 -308 30 -333 30 -337 -3 -365 -36 -31 -85 -30 -115 1 -21
22 -27 54 -57 273 -39 287 -41 351 -15 409 23 51 75 110 115 131 71 38 484
192 514 192 19 1 47 -7 62 -16z m275 -254 c12 -34 16 -67 12 -98 -6 -44 -211
-758 -221 -768 -4 -4 -354 56 -363 61 -1 1 5 22 14 48 16 42 16 60 -1 264 -10
121 -19 230 -20 243 -1 22 7 25 169 62 94 22 194 51 222 65 55 26 114 86 141
142 9 17 19 32 23 32 4 0 15 -23 24 -51z m870 -124 c30 -29 33 -83 8 -114 -10
-11 -128 -73 -263 -138 -237 -113 -247 -117 -320 -121 -62 -2 -83 1 -121 20
l-47 23 25 85 c14 47 27 87 29 89 2 2 12 -3 21 -12 42 -37 60 -33 329 82 143
61 272 111 287 111 16 0 38 -10 52 -25z m-1300 -915 c152 -29 225 -47 236 -58
14 -15 136 -211 374 -602 107 -175 123 -205 140 -260 19 -64 175 -941 168
-953 -2 -4 -55 -7 -118 -7 -100 0 -114 2 -119 18 -3 9 -46 197 -96 417 -49
220 -95 412 -101 426 -6 15 -63 72 -127 127 -533 457 -546 470 -591 573 -45
102 -62 227 -45 332 6 35 9 38 33 33 14 -3 125 -24 246 -46z m-223 -661 l110
-106 -111 -221 c-124 -245 -158 -290 -266 -343 -95 -46 -142 -50 -542 -36
-199 7 -364 15 -367 18 -3 3 22 53 56 111 l61 106 91 6 c50 3 209 12 353 19
228 11 264 15 282 31 25 23 45 83 116 350 31 116 59 214 62 219 3 6 15 -3 26
-19 11 -16 69 -77 129 -135z m-1318 -385 c25 -14 46 -30 46 -35 0 -15 -129
-237 -157 -270 -38 -45 -105 -80 -165 -85 -93 -9 -92 -6 22 192 57 99 112 189
123 202 27 30 73 29 131 -4z m2656 -1058 c62 -33 130 -109 130 -146 0 -7 -72
-10 -215 -10 l-215 0 -30 28 c-22 20 -34 44 -44 90 l-15 64 177 -4 c149 -2
183 -6 212 -22z"/>
</g>
</svg>
